Maitree-400.ufo
<glyph name="grave" format="2">
	<advance width="293"/>
	<unicode hex="0060"/>
	<note>
		grave
	</note>
	<outline>
		<contour>
			<point x="175" y="536" type="line"/>
			<point x="220" y="565" type="line"/>
			<point x="133" y="711" type="line"/>
			<point x="73" y="672" type="line"/>
		</contour>
	</outline>
</glyph>
<glyph name="Yacute" format="2">
	<advance width="693"/>
	<unicode hex="00DD"/>
	<note>
		Yacute
	</note>
	<outline>
		<contour>
			<point x="330" y="752" type="line"/>
			<point x="432" y="888" type="line"/>
			<point x="372" y="927" type="line"/>
			<point x="285" y="781" type="line"/>
		</contour>
		<component base="Y"/>
	</outline>
</glyph>
<glyph name="Gdotaccent" format="2">
	<advance width="718"/>
	<unicode hex="0120"/>
	<note>
		Gdotaccent
	</note>
	<outline>
		<contour>
			<point x="368" y="768" type="curve" smooth="yes"/>
			<point x="395" y="768"/>
			<point x="417" y="789"/>
			<point x="417" y="817" type="curve" smooth="yes"/>
			<point x="417" y="845"/>
			<point x="395" y="866"/>
			<point x="368" y="866" type="curve" smooth="yes"/>
			<point x="341" y="866"/>
			<point x="319" y="845"/>
			<point x="319" y="817" type="curve" smooth="yes"/>
			<point x="319" y="789"/>
			<point x="341" y="768"/>
		</contour>
		<component base="G"/>
	</outline>
</glyph>
<glyph name="uhungarumlaut" format="2">
	<advance width="597"/>
	<unicode hex="0171"/>
	<note>
		uhungarumlaut
	</note>
	<outline>
		<contour>
			<point x="179" y="563" type="line"/>
			<point x="288" y="695" type="line"/>
			<point x="237" y="726" type="line"/>
			<point x="144" y="587" type="line"/>
		</contour>
		<contour>
			<point x="355" y="563" type="line"/>
			<point x="464" y="695" type="line"/>
			<point x="413" y="726" type="line"/>
			<point x="320" y="587" type="line"/>
		</contour>
		<component base="u"/>
	</outline>
</glyph>
<glyph name="uni02CC" format="2">
	<advance width="169"/>
	<unicode hex="02CC"/>
	<note>
		uni02CC
	</note>
	<outline>
		<contour>
			<point x="53" y="-143" type="line"/>
			<point x="117" y="-143" type="line"/>
			<point x="117" y="0" type="line"/>
			<point x="53" y="0" type="line"/>
		</contour>
	</outline>
</glyph>
<glyph name="gravecomb" format="2">
	<advance width="0"/>
	<unicode hex="0300"/>
	<note>
		gravecomb
	</note>
	<outline>
		<contour>
			<point x="-239" y="536" type="line"/>
			<point x="-194" y="565" type="line"/>
			<point x="-282" y="711" type="line"/>
			<point x="-341" y="672" type="line"/>
		</contour>
	</outline>
</glyph>
<glyph name="saraI-thai" format="2">
	<advance width="0"/>
	<unicode hex="0E34"/>
	<anchor x="-81" y="492" name="top"/>
	<anchor x="-81" y="278" name="_top"/>
	<note>
		saraI-thai
	</note>
	<outline>
		<contour>
			<point x="-488" y="637" type="curve" smooth="yes"/>
			<point x="-82" y="637" type="line" smooth="yes"/>
			<point x="-74" y="637"/>
			<point x="-70" y="641"/>
			<point x="-70" y="650" type="curve" smooth="yes"/>
			<point x="-70" y="670" type="line"/>
			<point x="-92" y="741"/>
			<point x="-169" y="801"/>
			<point x="-285" y="801" type="curve" smooth="yes"/>
			<point x="-401" y="801"/>
			<point x="-479" y="741"/>
			<point x="-501" y="670" type="curve"/>
			<point x="-501" y="650" type="line" smooth="yes"/>
			<point x="-501" y="641"/>
			<point x="-496" y="637"/>
		</contour>
		<contour>
			<point x="-437" y="676" type="line"/>
			<point x="-420" y="726"/>
			<point x="-362" y="759"/>
			<point x="-285" y="759" type="curve" smooth="yes"/>
			<point x="-209" y="759"/>
			<point x="-151" y="726"/>
			<point x="-134" y="676" type="curve"/>
		</contour>
	</outline>
</glyph>
<glyph name="phinthu-thai" format="2">
	<advance width="0"/>
	<unicode hex="0E3A"/>
	<anchor x="-83" y="0" name="_bottom"/>
	<anchor x="-83" y="-186" name="bottom"/>
	<note>
		phinthu-thai
	</note>
	<outline>
		<contour>
			<point x="-129" y="-184" type="curve" smooth="yes"/>
			<point x="-99" y="-184"/>
			<point x="-71" y="-161"/>
			<point x="-71" y="-125" type="curve" smooth="yes"/>
			<point x="-71" y="-89"/>
			<point x="-99" y="-66"/>
			<point x="-129" y="-66" type="curve" smooth="yes"/>
			<point x="-161" y="-66"/>
			<point x="-189" y="-89"/>
			<point x="-189" y="-125" type="curve" smooth="yes"/>
			<point x="-189" y="-161"/>
			<point x="-161" y="-184"/>
		</contour>
	</outline>
</glyph>
<glyph name="maiEk-thai" format="2">
	<advance width="0"/>
	<unicode hex="0E48"/>
	<anchor x="-93" y="526" name="top"/>
	<anchor x="-83" y="278" name="_top"/>
	<note>
		maiEk-thai
	</note>
	<outline>
		<contour>
			<point x="-119" y="637" type="curve" smooth="yes"/>
			<point x="-100" y="637"/>
			<point x="-90" y="648"/>
			<point x="-90" y="661" type="curve" smooth="yes"/>
			<point x="-90" y="790" type="line" smooth="yes"/>
			<point x="-90" y="810"/>
			<point x="-102" y="823"/>
			<point x="-126" y="823" type="curve" smooth="yes"/>
			<point x="-144" y="823"/>
			<point x="-155" y="812"/>
			<point x="-155" y="798" type="curve" smooth="yes"/>
			<point x="-155" y="670" type="line" smooth="yes"/>
			<point x="-155" y="649"/>
			<point x="-142" y="637"/>
		</contour>
	</outline>
</glyph>
<glyph name="nikhahit-thai" format="2">
	<advance width="0"/>
	<unicode hex="0E4D"/>
	<anchor x="-102" y="506" name="top"/>
	<anchor x="-83" y="278" name="_top"/>
	<note>
		nikhahit-thai
	</note>
	<outline>
		<contour>
			<point x="-132" y="627" type="curve" smooth="yes"/>
			<point x="-80" y="627"/>
			<point x="-37" y="661"/>
			<point x="-37" y="719" type="curve" smooth="yes"/>
			<point x="-37" y="778"/>
			<point x="-80" y="812"/>
			<point x="-132" y="812" type="curve" smooth="yes"/>
			<point x="-185" y="812"/>
			<point x="-229" y="778"/>
			<point x="-229" y="719" type="curve" smooth="yes"/>
			<point x="-229" y="661"/>
			<point x="-185" y="627"/>
		</contour>
		<contour>
			<point x="-132" y="667" type="curve" smooth="yes"/>
			<point x="-160" y="667"/>
			<point x="-182" y="685"/>
			<point x="-182" y="719" type="curve" smooth="yes"/>
			<point x="-182" y="754"/>
			<point x="-160" y="771"/>
			<point x="-132" y="771" type="curve" smooth="yes"/>
			<point x="-105" y="771"/>
			<point x="-83" y="754"/>
			<point x="-83" y="719" type="curve" smooth="yes"/>
			<point x="-83" y="686"/>
			<point x="-105" y="667"/>
		</contour>
	</outline>
</glyph>
<glyph name="acircumflexacute" format="2">
	<advance width="528"/>
	<unicode hex="1EA5"/>
	<note>
		acircumflexacute
	</note>
	<outline>
		<contour>
			<point x="167" y="559" type="line"/>
			<point x="258" y="658" type="line"/>
			<point x="349" y="559" type="line"/>
			<point x="386" y="589" type="line"/>
			<point x="279" y="725" type="line"/>
			<point x="237" y="725" type="line"/>
			<point x="130" y="589" type="line"/>
		</contour>
		<contour>
			<point x="389" y="659" type="line"/>
			<point x="469" y="758" type="line"/>
			<point x="415" y="793" type="line"/>
			<point x="352" y="684" type="line"/>
		</contour>
		<component base="a"/>
	</outline>
</glyph>
<glyph name="Ocircumflextilde" format="2">
	<advance width="737"/>
	<unicode hex="1ED6"/>
	<note>
		Ocircumflextilde
	</note>
	<outline>
		<contour>
			<point x="369" y="-12" type="curve" smooth="yes"/>
			<point x="557" y="-12"/>
			<point x="687" y="104"/>
			<point x="687" y="346" type="curve" smooth="yes"/>
			<point x="687" y="588"/>
			<point x="557" y="707"/>
			<point x="369" y="707" type="curve" smooth="yes"/>
			<point x="181" y="707"/>
			<point x="50" y="588"/>
			<point x="50" y="346" type="curve" smooth="yes"/>
			<point x="50" y="104"/>
			<point x="181" y="-12"/>
		</contour>
		<contour>
			<point x="368" y="42" type="curve" smooth="yes"/>
			<point x="215" y="42"/>
			<point x="131" y="153"/>
			<point x="131" y="346" type="curve" smooth="yes"/>
			<point x="131" y="539"/>
			<point x="215" y="653"/>
			<point x="368" y="653" type="curve" smooth="yes"/>
			<point x="522" y="653"/>
			<point x="606" y="539"/>
			<point x="606" y="346" type="curve" smooth="yes"/>
			<point x="606" y="153"/>
			<point x="522" y="42"/>
		</contour>
		<contour>
			<point x="278" y="751" type="line"/>
			<point x="369" y="850" type="line"/>
			<point x="460" y="751" type="line"/>
			<point x="497" y="781" type="line"/>
			<point x="390" y="917" type="line"/>
			<point x="348" y="917" type="line"/>
			<point x="241" y="781" type="line"/>
		</contour>
		<contour>
			<point x="415" y="947" type="curve" smooth="yes"/>
			<point x="439" y="947"/>
			<point x="465" y="962"/>
			<point x="486" y="982" type="curve"/>
			<point x="464" y="1017" type="line"/>
			<point x="448" y="1005"/>
			<point x="432" y="997"/>
			<point x="414" y="997" type="curve" smooth="yes"/>
			<point x="387" y="997"/>
			<point x="357" y="1024"/>
			<point x="327" y="1024" type="curve" smooth="yes"/>
			<point x="304" y="1024"/>
			<point x="276" y="1008"/>
			<point x="255" y="990" type="curve"/>
			<point x="277" y="954" type="line"/>
			<point x="292" y="965"/>
			<point x="307" y="975"/>
			<point x="327" y="975" type="curve" smooth="yes"/>
			<point x="358" y="975"/>
			<point x="382" y="947"/>
		</contour>
	</outline>
</glyph>
<glyph name="ocircumflextilde" format="2">
	<advance width="543"/>
	<unicode hex="1ED7"/>
	<note>
		ocircumflextilde
	</note>
	<outline>
		<contour>
			<point x="271" y="-12" type="curve" smooth="yes"/>
			<point x="413" y="-12"/>
			<point x="503" y="83"/>
			<point x="503" y="244" type="curve" smooth="yes"/>
			<point x="503" y="403"/>
			<point x="413" y="499"/>
			<point x="271" y="499" type="curve" smooth="yes"/>
			<point x="130" y="499"/>
			<point x="40" y="403"/>
			<point x="40" y="244" type="curve" smooth="yes"/>
			<point x="40" y="83"/>
			<point x="130" y="-12"/>
		</contour>
		<contour>
			<point x="272" y="37" type="curve" smooth="yes"/>
			<point x="174" y="37"/>
			<point x="116" y="112"/>
			<point x="116" y="244" type="curve" smooth="yes"/>
			<point x="116" y="375"/>
			<point x="174" y="450"/>
			<point x="272" y="450" type="curve" smooth="yes"/>
			<point x="369" y="450"/>
			<point x="427" y="375"/>
			<point x="427" y="244" type="curve" smooth="yes"/>
			<point x="427" y="112"/>
			<point x="369" y="37"/>
		</contour>
		<contour>
			<point x="182" y="559" type="line"/>
			<point x="273" y="658" type="line"/>
			<point x="364" y="559" type="line"/>
			<point x="401" y="589" type="line"/>
			<point x="294" y="725" type="line"/>
			<point x="252" y="725" type="line"/>
			<point x="145" y="589" type="line"/>
		</contour>
		<contour>
			<point x="319" y="755" type="curve" smooth="yes"/>
			<point x="343" y="755"/>
			<point x="369" y="770"/>
			<point x="390" y="790" type="curve"/>
			<point x="368" y="825" type="line"/>
			<point x="352" y="813"/>
			<point x="336" y="805"/>
			<point x="318" y="805" type="curve" smooth="yes"/>
			<point x="291" y="805"/>
			<point x="261" y="832"/>
			<point x="231" y="832" type="curve" smooth="yes"/>
			<point x="208" y="832"/>
			<point x="180" y="816"/>
			<point x="159" y="798" type="curve"/>
			<point x="181" y="762" type="line"/>
			<point x="196" y="773"/>
			<point x="211" y="783"/>
			<point x="231" y="783" type="curve" smooth="yes"/>
			<point x="262" y="783"/>
			<point x="286" y="755"/>
		</contour>
	</outline>
</glyph>
<glyph name="fraction" format="2">
	<advance width="203"/>
	<unicode hex="2044"/>
	<note>
		fraction
	</note>
	<outline>
		<contour>
			<point x="-105" y="-20" type="line"/>
			<point x="365" y="658" type="line"/>
			<point x="305" y="701" type="line"/>
			<point x="-163" y="23" type="line"/>
		</contour>
	</outline>
</glyph>
<glyph name="foursuperior" format="2">
	<advance width="324"/>
	<unicode hex="2074"/>
	<note>
		four.superior
	</note>
	<outline>
		<contour>
			<point x="191" y="391" type="line"/>
			<point x="245" y="391" type="line"/>
			<point x="245" y="476" type="line"/>
			<point x="296" y="476" type="line"/>
			<point x="296" y="515" type="line"/>
			<point x="245" y="515" type="line"/>
			<point x="245" y="761" type="line"/>
			<point x="183" y="761" type="line"/>
			<point x="8" y="516" type="line"/>
			<point x="8" y="476" type="line"/>
			<point x="191" y="476" type="line"/>
		</contour>
		<contour>
			<point x="56" y="515" type="line"/>
			<point x="191" y="704" type="line"/>
			<point x="191" y="515" type="line"/>
		</contour>
	</outline>
</glyph>
<glyph name="triagdn" format="2">
	<advance width="696"/>
	<unicode hex="25BC"/>
	<note>
		triagdn
	</note>
	<outline>
		<contour>
			<point x="348" y="-2" type="line"/>
			<point x="623" y="520" type="line"/>
			<point x="73" y="520" type="line"/>
		</contour>
	</outline>
</glyph>
<glyph name="maiEk-thai.small" format="2">
	<advance width="0"/>
	<anchor x="-83" y="713" name="top"/>
	<anchor x="-83" y="512" name="_top"/>
	<note>
		maiEk-thai.small
	</note>
	<outline>
		<contour>
			<point x="-111" y="870" type="curve" smooth="yes"/>
			<point x="-92" y="870"/>
			<point x="-84" y="881"/>
			<point x="-84" y="894" type="curve" smooth="yes"/>
			<point x="-84" y="1011" type="line" smooth="yes"/>
			<point x="-84" y="1031"/>
			<point x="-94" y="1044"/>
			<point x="-118" y="1044" type="curve" smooth="yes"/>
			<point x="-136" y="1044"/>
			<point x="-144" y="1033"/>
			<point x="-144" y="1019" type="curve" smooth="yes"/>
			<point x="-144" y="903" type="line" smooth="yes"/>
			<point x="-144" y="882"/>
			<point x="-134" y="870"/>
		</contour>
	</outline>
</glyph>
<glyph name="nikhahit_maiChattawa-thai" format="2">
	<advance width="0"/>
	<anchor x="-102" y="506" name="top"/>
	<anchor x="-83" y="278" name="_top"/>
	<outline>
		<contour>
			<point x="-132" y="627" type="curve" smooth="yes"/>
			<point x="-80" y="627"/>
			<point x="-37" y="661"/>
			<point x="-37" y="719" type="curve" smooth="yes"/>
			<point x="-37" y="778"/>
			<point x="-80" y="812"/>
			<point x="-132" y="812" type="curve" smooth="yes"/>
			<point x="-185" y="812"/>
			<point x="-229" y="778"/>
			<point x="-229" y="719" type="curve" smooth="yes"/>
			<point x="-229" y="661"/>
			<point x="-185" y="627"/>
		</contour>
		<contour>
			<point x="-132" y="667" type="curve" smooth="yes"/>
			<point x="-160" y="667"/>
			<point x="-182" y="685"/>
			<point x="-182" y="719" type="curve" smooth="yes"/>
			<point x="-182" y="754"/>
			<point x="-160" y="771"/>
			<point x="-132" y="771" type="curve" smooth="yes"/>
			<point x="-105" y="771"/>
			<point x="-83" y="754"/>
			<point x="-83" y="719" type="curve" smooth="yes"/>
			<point x="-83" y="686"/>
			<point x="-105" y="667"/>
		</contour>
		<contour>
			<point x="-119" y="870" type="curve" smooth="yes"/>
			<point x="-102" y="870"/>
			<point x="-93" y="882"/>
			<point x="-94" y="898" type="curve" smooth="yes"/>
			<point x="-98" y="953" type="line"/>
			<point x="-54" y="950" type="line" smooth="yes"/>
			<point x="-30" y="948"/>
			<point x="-14" y="954"/>
			<point x="-14" y="978" type="curve" smooth="yes"/>
			<point x="-14" y="998"/>
			<point x="-25" y="1003"/>
			<point x="-47" y="1001" type="curve" smooth="yes"/>
			<point x="-98" y="998" type="line"/>
			<point x="-95" y="1041" type="line" smooth="yes"/>
			<point x="-93" y="1065"/>
			<point x="-101" y="1081"/>
			<point x="-125" y="1081" type="curve" smooth="yes"/>
			<point x="-143" y="1081"/>
			<point x="-152" y="1069"/>
			<point x="-151" y="1053" type="curve" smooth="yes"/>
			<point x="-147" y="998" type="line"/>
			<point x="-190" y="1001" type="line" smooth="yes"/>
			<point x="-214" y="1003"/>
			<point x="-230" y="997"/>
			<point x="-230" y="973" type="curve" smooth="yes"/>
			<point x="-230" y="953"/>
			<point x="-219" y="949"/>
			<point x="-197" y="950" type="curve" smooth="yes"/>
			<point x="-147" y="953" type="line"/>
			<point x="-150" y="910" type="line" smooth="yes"/>
			<point x="-152" y="886"/>
			<point x="-144" y="870"/>
		</contour>
	</outline>
</glyph>
<glyph name="nikhahit_maiChattawa-thai.narrow" format="2">
	<advance width="0"/>
	<anchor x="-309" y="506" name="top"/>
	<anchor x="-246" y="278" name="_top"/>
	<outline>
		<contour>
			<point x="-342" y="627" type="curve" smooth="yes"/>
			<point x="-290" y="627"/>
			<point x="-247" y="661"/>
			<point x="-247" y="719" type="curve" smooth="yes"/>
			<point x="-247" y="778"/>
			<point x="-290" y="812"/>
			<point x="-342" y="812" type="curve" smooth="yes"/>
			<point x="-395" y="812"/>
			<point x="-439" y="778"/>
			<point x="-439" y="719" type="curve" smooth="yes"/>
			<point x="-439" y="661"/>
			<point x="-395" y="627"/>
		</contour>
		<contour>
			<point x="-343" y="667" type="curve" smooth="yes"/>
			<point x="-371" y="667"/>
			<point x="-393" y="685"/>
			<point x="-393" y="719" type="curve" smooth="yes"/>
			<point x="-393" y="754"/>
			<point x="-371" y="771"/>
			<point x="-343" y="771" type="curve" smooth="yes"/>
			<point x="-316" y="771"/>
			<point x="-294" y="754"/>
			<point x="-294" y="719" type="curve" smooth="yes"/>
			<point x="-294" y="686"/>
			<point x="-316" y="667"/>
		</contour>
		<contour>
			<point x="-339" y="870" type="curve" smooth="yes"/>
			<point x="-322" y="870"/>
			<point x="-313" y="882"/>
			<point x="-314" y="898" type="curve" smooth="yes"/>
			<point x="-318" y="953" type="line"/>
			<point x="-274" y="950" type="line" smooth="yes"/>
			<point x="-250" y="948"/>
			<point x="-234" y="954"/>
			<point x="-234" y="978" type="curve" smooth="yes"/>
			<point x="-234" y="998"/>
			<point x="-245" y="1003"/>
			<point x="-267" y="1001" type="curve" smooth="yes"/>
			<point x="-318" y="998" type="line"/>
			<point x="-315" y="1041" type="line" smooth="yes"/>
			<point x="-313" y="1065"/>
			<point x="-321" y="1081"/>
			<point x="-345" y="1081" type="curve" smooth="yes"/>
			<point x="-363" y="1081"/>
			<point x="-372" y="1069"/>
			<point x="-371" y="1053" type="curve" smooth="yes"/>
			<point x="-367" y="998" type="line"/>
			<point x="-410" y="1001" type="line" smooth="yes"/>
			<point x="-434" y="1003"/>
			<point x="-450" y="997"/>
			<point x="-450" y="973" type="curve" smooth="yes"/>
			<point x="-450" y="953"/>
			<point x="-439" y="949"/>
			<point x="-417" y="950" type="curve" smooth="yes"/>
			<point x="-367" y="953" type="line"/>
			<point x="-370" y="910" type="line" smooth="yes"/>
			<point x="-372" y="886"/>
			<point x="-364" y="870"/>
		</contour>
	</outline>
</glyph>
<glyph name="nikhahit_maiEk-thai" format="2">
	<advance width="0"/>
	<anchor x="-102" y="506" name="top"/>
	<anchor x="-83" y="278" name="_top"/>
	<outline>
		<contour>
			<point x="-132" y="627" type="curve" smooth="yes"/>
			<point x="-80" y="627"/>
			<point x="-37" y="661"/>
			<point x="-37" y="719" type="curve" smooth="yes"/>
			<point x="-37" y="778"/>
			<point x="-80" y="812"/>
			<point x="-132" y="812" type="curve" smooth="yes"/>
			<point x="-185" y="812"/>
			<point x="-229" y="778"/>
			<point x="-229" y="719" type="curve" smooth="yes"/>
			<point x="-229" y="661"/>
			<point x="-185" y="627"/>
		</contour>
		<contour>
			<point x="-132" y="667" type="curve" smooth="yes"/>
			<point x="-160" y="667"/>
			<point x="-182" y="685"/>
			<point x="-182" y="719" type="curve" smooth="yes"/>
			<point x="-182" y="754"/>
			<point x="-160" y="771"/>
			<point x="-132" y="771" type="curve" smooth="yes"/>
			<point x="-105" y="771"/>
			<point x="-83" y="754"/>
			<point x="-83" y="719" type="curve" smooth="yes"/>
			<point x="-83" y="686"/>
			<point x="-105" y="667"/>
		</contour>
		<contour>
			<point x="-111" y="870" type="curve" smooth="yes"/>
			<point x="-92" y="870"/>
			<point x="-84" y="881"/>
			<point x="-84" y="894" type="curve" smooth="yes"/>
			<point x="-84" y="1011" type="line" smooth="yes"/>
			<point x="-84" y="1031"/>
			<point x="-94" y="1044"/>
			<point x="-118" y="1044" type="curve" smooth="yes"/>
			<point x="-136" y="1044"/>
			<point x="-144" y="1033"/>
			<point x="-144" y="1019" type="curve" smooth="yes"/>
			<point x="-144" y="903" type="line" smooth="yes"/>
			<point x="-144" y="882"/>
			<point x="-134" y="870"/>
		</contour>
	</outline>
</glyph>
<glyph name="nikhahit_maiEk-thai.narrow" format="2">
	<advance width="0"/>
	<anchor x="-309" y="506" name="top"/>
	<anchor x="-246" y="278" name="_top"/>
	<outline>
		<contour>
			<point x="-342" y="627" type="curve" smooth="yes"/>
			<point x="-290" y="627"/>
			<point x="-247" y="661"/>
			<point x="-247" y="719" type="curve" smooth="yes"/>
			<point x="-247" y="778"/>
			<point x="-290" y="812"/>
			<point x="-342" y="812" type="curve" smooth="yes"/>
			<point x="-395" y="812"/>
			<point x="-439" y="778"/>
			<point x="-439" y="719" type="curve" smooth="yes"/>
			<point x="-439" y="661"/>
			<point x="-395" y="627"/>
		</contour>
		<contour>
			<point x="-343" y="667" type="curve" smooth="yes"/>
			<point x="-371" y="667"/>
			<point x="-393" y="685"/>
			<point x="-393" y="719" type="curve" smooth="yes"/>
			<point x="-393" y="754"/>
			<point x="-371" y="771"/>
			<point x="-343" y="771" type="curve" smooth="yes"/>
			<point x="-316" y="771"/>
			<point x="-294" y="754"/>
			<point x="-294" y="719" type="curve" smooth="yes"/>
			<point x="-294" y="686"/>
			<point x="-316" y="667"/>
		</contour>
		<contour>
			<point x="-332" y="870" type="curve" smooth="yes"/>
			<point x="-313" y="870"/>
			<point x="-305" y="881"/>
			<point x="-305" y="894" type="curve" smooth="yes"/>
			<point x="-305" y="1011" type="line" smooth="yes"/>
			<point x="-305" y="1031"/>
			<point x="-315" y="1044"/>
			<point x="-339" y="1044" type="curve" smooth="yes"/>
			<point x="-357" y="1044"/>
			<point x="-365" y="1033"/>
			<point x="-365" y="1019" type="curve" smooth="yes"/>
			<point x="-365" y="903" type="line" smooth="yes"/>
			<point x="-365" y="882"/>
			<point x="-355" y="870"/>
		</contour>
	</outline>
</glyph>
<glyph name="nikhahit_maiTho-thai" format="2">
	<advance width="0"/>
	<anchor x="-102" y="506" name="top"/>
	<anchor x="-83" y="278" name="_top"/>
	<outline>
		<contour>
			<point x="-132" y="627" type="curve" smooth="yes"/>
			<point x="-80" y="627"/>
			<point x="-37" y="661"/>
			<point x="-37" y="719" type="curve" smooth="yes"/>
			<point x="-37" y="778"/>
			<point x="-80" y="812"/>
			<point x="-132" y="812" type="curve" smooth="yes"/>
			<point x="-185" y="812"/>
			<point x="-229" y="778"/>
			<point x="-229" y="719" type="curve" smooth="yes"/>
			<point x="-229" y="661"/>
			<point x="-185" y="627"/>
		</contour>
		<contour>
			<point x="-132" y="667" type="curve" smooth="yes"/>
			<point x="-160" y="667"/>
			<point x="-182" y="685"/>
			<point x="-182" y="719" type="curve" smooth="yes"/>
			<point x="-182" y="754"/>
			<point x="-160" y="771"/>
			<point x="-132" y="771" type="curve" smooth="yes"/>
			<point x="-105" y="771"/>
			<point x="-83" y="754"/>
			<point x="-83" y="719" type="curve" smooth="yes"/>
			<point x="-83" y="686"/>
			<point x="-105" y="667"/>
		</contour>
		<contour>
			<point x="-240" y="870" type="curve" smooth="yes"/>
			<point x="-119" y="872"/>
			<point x="-39" y="909"/>
			<point x="2" y="994" type="curve" smooth="yes"/>
			<point x="8" y="1007"/>
			<point x="15" y="1023"/>
			<point x="15" y="1036" type="curve" smooth="yes"/>
			<point x="15" y="1051"/>
			<point x="5" y="1063"/>
			<point x="-17" y="1063" type="curve" smooth="yes"/>
			<point x="-28" y="1063"/>
			<point x="-33" y="1057"/>
			<point x="-36" y="1047" type="curve" smooth="yes"/>
			<point x="-58" y="966"/>
			<point x="-104" y="922"/>
			<point x="-195" y="911" type="curve"/>
			<point x="-164" y="935"/>
			<point x="-149" y="964"/>
			<point x="-149" y="1002" type="curve" smooth="yes"/>
			<point x="-149" y="1040"/>
			<point x="-174" y="1072"/>
			<point x="-217" y="1072" type="curve" smooth="yes"/>
			<point x="-254" y="1072"/>
			<point x="-281" y="1046"/>
			<point x="-281" y="1012" type="curve" smooth="yes"/>
			<point x="-281" y="978"/>
			<point x="-254" y="956"/>
			<point x="-224" y="956" type="curve" smooth="yes"/>
			<point x="-213" y="956"/>
			<point x="-205" y="959"/>
			<point x="-199" y="963" type="curve"/>
			<point x="-196" y="961" type="line"/>
			<point x="-205" y="940"/>
			<point x="-228" y="922"/>
			<point x="-252" y="912" type="curve"/>
			<point x="-252" y="880" type="line" smooth="yes"/>
			<point x="-252" y="872"/>
			<point x="-247" y="870"/>
		</contour>
		<contour>
			<point x="-218" y="982" type="curve" smooth="yes"/>
			<point x="-236" y="982"/>
			<point x="-249" y="994"/>
			<point x="-249" y="1014" type="curve" smooth="yes"/>
			<point x="-249" y="1034"/>
			<point x="-236" y="1046"/>
			<point x="-218" y="1046" type="curve" smooth="yes"/>
			<point x="-200" y="1046"/>
			<point x="-187" y="1034"/>
			<point x="-187" y="1014" type="curve" smooth="yes"/>
			<point x="-187" y="993"/>
			<point x="-200" y="982"/>
		</contour>
	</outline>
</glyph>
<glyph name="nikhahit_maiTho-thai.narrow" format="2">
	<advance width="0"/>
	<anchor x="-309" y="506" name="top"/>
	<anchor x="-246" y="278" name="_top"/>
	<outline>
		<contour>
			<point x="-342" y="627" type="curve" smooth="yes"/>
			<point x="-290" y="627"/>
			<point x="-247" y="661"/>
			<point x="-247" y="719" type="curve" smooth="yes"/>
			<point x="-247" y="778"/>
			<point x="-290" y="812"/>
			<point x="-342" y="812" type="curve" smooth="yes"/>
			<point x="-395" y="812"/>
			<point x="-439" y="778"/>
			<point x="-439" y="719" type="curve" smooth="yes"/>
			<point x="-439" y="661"/>
			<point x="-395" y="627"/>
		</contour>
		<contour>
			<point x="-343" y="667" type="curve" smooth="yes"/>
			<point x="-371" y="667"/>
			<point x="-393" y="685"/>
			<point x="-393" y="719" type="curve" smooth="yes"/>
			<point x="-393" y="754"/>
			<point x="-371" y="771"/>
			<point x="-343" y="771" type="curve" smooth="yes"/>
			<point x="-316" y="771"/>
			<point x="-294" y="754"/>
			<point x="-294" y="719" type="curve" smooth="yes"/>
			<point x="-294" y="686"/>
			<point x="-316" y="667"/>
		</contour>
		<contour>
			<point x="-450" y="870" type="curve" smooth="yes"/>
			<point x="-329" y="872"/>
			<point x="-249" y="909"/>
			<point x="-208" y="994" type="curve" smooth="yes"/>
			<point x="-202" y="1007"/>
			<point x="-195" y="1023"/>
			<point x="-195" y="1036" type="curve" smooth="yes"/>
			<point x="-195" y="1051"/>
			<point x="-205" y="1063"/>
			<point x="-227" y="1063" type="curve" smooth="yes"/>
			<point x="-238" y="1063"/>
			<point x="-243" y="1057"/>
			<point x="-246" y="1047" type="curve" smooth="yes"/>
			<point x="-268" y="966"/>
			<point x="-314" y="922"/>
			<point x="-405" y="911" type="curve"/>
			<point x="-374" y="935"/>
			<point x="-359" y="964"/>
			<point x="-359" y="1002" type="curve" smooth="yes"/>
			<point x="-359" y="1040"/>
			<point x="-384" y="1072"/>
			<point x="-427" y="1072" type="curve" smooth="yes"/>
			<point x="-464" y="1072"/>
			<point x="-491" y="1046"/>
			<point x="-491" y="1012" type="curve" smooth="yes"/>
			<point x="-491" y="978"/>
			<point x="-464" y="956"/>
			<point x="-434" y="956" type="curve" smooth="yes"/>
			<point x="-423" y="956"/>
			<point x="-415" y="959"/>
			<point x="-409" y="963" type="curve"/>
			<point x="-406" y="961" type="line"/>
			<point x="-415" y="940"/>
			<point x="-438" y="922"/>
			<point x="-462" y="912" type="curve"/>
			<point x="-462" y="880" type="line" smooth="yes"/>
			<point x="-462" y="872"/>
			<point x="-457" y="870"/>
		</contour>
		<contour>
			<point x="-428" y="982" type="curve" smooth="yes"/>
			<point x="-446" y="982"/>
			<point x="-459" y="994"/>
			<point x="-459" y="1014" type="curve" smooth="yes"/>
			<point x="-459" y="1034"/>
			<point x="-446" y="1046"/>
			<point x="-428" y="1046" type="curve" smooth="yes"/>
			<point x="-410" y="1046"/>
			<point x="-397" y="1034"/>
			<point x="-397" y="1014" type="curve" smooth="yes"/>
			<point x="-397" y="993"/>
			<point x="-410" y="982"/>
		</contour>
	</outline>
</glyph>
<glyph name="nikhahit_maiTri-thai.narrow" format="2">
	<advance width="0"/>
	<anchor x="-309" y="506" name="top"/>
	<anchor x="-246" y="278" name="_top"/>
	<outline>
		<contour>
			<point x="-342" y="627" type="curve" smooth="yes"/>
			<point x="-290" y="627"/>
			<point x="-247" y="661"/>
			<point x="-247" y="719" type="curve" smooth="yes"/>
			<point x="-247" y="778"/>
			<point x="-290" y="812"/>
			<point x="-342" y="812" type="curve" smooth="yes"/>
			<point x="-395" y="812"/>
			<point x="-439" y="778"/>
			<point x="-439" y="719" type="curve" smooth="yes"/>
			<point x="-439" y="661"/>
			<point x="-395" y="627"/>
		</contour>
		<contour>
			<point x="-343" y="667" type="curve" smooth="yes"/>
			<point x="-371" y="667"/>
			<point x="-393" y="685"/>
			<point x="-393" y="719" type="curve" smooth="yes"/>
			<point x="-393" y="754"/>
			<point x="-371" y="771"/>
			<point x="-343" y="771" type="curve" smooth="yes"/>
			<point x="-316" y="771"/>
			<point x="-294" y="754"/>
			<point x="-294" y="719" type="curve" smooth="yes"/>
			<point x="-294" y="686"/>
			<point x="-316" y="667"/>
		</contour>
		<contour>
			<point x="-415" y="868" type="curve" smooth="yes"/>
			<point x="-380" y="868"/>
			<point x="-354" y="891"/>
			<point x="-354" y="925" type="curve" smooth="yes"/>
			<point x="-354" y="959"/>
			<point x="-379" y="979"/>
			<point x="-408" y="979" type="curve" smooth="yes"/>
			<point x="-418" y="979"/>
			<point x="-427" y="976"/>
			<point x="-435" y="971" type="curve"/>
			<point x="-437" y="972" type="line"/>
			<point x="-436" y="1000"/>
			<point x="-424" y="1022"/>
			<point x="-399" y="1022" type="curve" smooth="yes"/>
			<point x="-372" y="1022"/>
			<point x="-361" y="1002"/>
			<point x="-360" y="988" type="curve"/>
			<point x="-334" y="988" type="line"/>
			<point x="-333" y="1003"/>
			<point x="-323" y="1022"/>
			<point x="-303" y="1022" type="curve" smooth="yes"/>
			<point x="-282" y="1022"/>
			<point x="-275" y="1007"/>
			<point x="-275" y="982" type="curve" smooth="yes"/>
			<point x="-275" y="889" type="line" smooth="yes"/>
			<point x="-275" y="881"/>
			<point x="-271" y="876"/>
			<point x="-261" y="876" type="curve" smooth="yes"/>
			<point x="-204" y="876" type="line" smooth="yes"/>
			<point x="-160" y="876"/>
			<point x="-134" y="892"/>
			<point x="-134" y="942" type="curve" smooth="yes"/>
			<point x="-134" y="1048" type="line" smooth="yes"/>
			<point x="-134" y="1068"/>
			<point x="-145" y="1076"/>
			<point x="-160" y="1076" type="curve" smooth="yes"/>
			<point x="-174" y="1076"/>
			<point x="-182" y="1067"/>
			<point x="-182" y="1055" type="curve" smooth="yes"/>
			<point x="-182" y="941" type="line" smooth="yes"/>
			<point x="-182" y="914"/>
			<point x="-192" y="905"/>
			<point x="-214" y="905" type="curve" smooth="yes"/>
			<point x="-228" y="905" type="line"/>
			<point x="-228" y="990" type="line" smooth="yes"/>
			<point x="-228" y="1033"/>
			<point x="-248" y="1060"/>
			<point x="-292" y="1060" type="curve" smooth="yes"/>
			<point x="-318" y="1060"/>
			<point x="-339" y="1044"/>
			<point x="-346" y="1025" type="curve"/>
			<point x="-354" y="1044"/>
			<point x="-375" y="1060"/>
			<point x="-404" y="1060" type="curve" smooth="yes"/>
			<point x="-453" y="1060"/>
			<point x="-485" y="1022"/>
			<point x="-485" y="955" type="curve" smooth="yes"/>
			<point x="-485" y="896"/>
			<point x="-452" y="868"/>
		</contour>
		<contour>
			<point x="-414" y="892" type="curve" smooth="yes"/>
			<point x="-430" y="892"/>
			<point x="-443" y="904"/>
			<point x="-443" y="923" type="curve" smooth="yes"/>
			<point x="-443" y="944"/>
			<point x="-430" y="954"/>
			<point x="-414" y="954" type="curve" smooth="yes"/>
			<point x="-397" y="954"/>
			<point x="-384" y="943"/>
			<point x="-384" y="923" type="curve" smooth="yes"/>
			<point x="-384" y="904"/>
			<point x="-397" y="892"/>
		</contour>
	</outline>
</glyph>
<glyph name="phinthu-thai.small" format="2">
	<advance width="0"/>
	<anchor x="-82" y="-180" name="_bottom"/>
	<anchor x="-82" y="-416" name="bottom"/>
	<note>
		phinthu-thai.small
	</note>
	<outline>
		<contour>
			<point x="-127" y="-378" type="curve" smooth="yes"/>
			<point x="-96" y="-378"/>
			<point x="-68" y="-354"/>
			<point x="-68" y="-319" type="curve" smooth="yes"/>
			<point x="-68" y="-283"/>
			<point x="-96" y="-260"/>
			<point x="-127" y="-260" type="curve" smooth="yes"/>
			<point x="-158" y="-260"/>
			<point x="-186" y="-283"/>
			<point x="-186" y="-319" type="curve" smooth="yes"/>
			<point x="-186" y="-354"/>
			<point x="-158" y="-378"/>
		</contour>
	</outline>
</glyph>
<glyph name="saraIi-thai.narrow" format="2">
	<advance width="0"/>
	<anchor x="-214" y="512" name="top"/>
	<anchor x="-214" y="278" name="_top"/>
	<note>
		saraIi-thai.narrow
	</note>
	<outline>
		<contour>
			<point x="-594" y="637" type="curve" smooth="yes"/>
			<point x="-217" y="637" type="line" smooth="yes"/>
			<point x="-209" y="637"/>
			<point x="-205" y="641"/>
			<point x="-205" y="650" type="curve" smooth="yes"/>
			<point x="-205" y="671" type="line"/>
			<point x="-207" y="679"/>
			<point x="-210" y="687"/>
			<point x="-214" y="695" type="curve"/>
			<point x="-214" y="817" type="line" smooth="yes"/>
			<point x="-214" y="832"/>
			<point x="-228" y="840"/>
			<point x="-245" y="840" type="curve" smooth="yes"/>
			<point x="-259" y="840"/>
			<point x="-270" y="834"/>
			<point x="-270" y="823" type="curve" smooth="yes"/>
			<point x="-270" y="719" type="line"/>
			<point x="-248" y="740" type="line"/>
			<point x="-282" y="775"/>
			<point x="-336" y="801"/>
			<point x="-406" y="801" type="curve" smooth="yes"/>
			<point x="-516" y="801"/>
			<point x="-585" y="742"/>
			<point x="-607" y="671" type="curve"/>
			<point x="-607" y="650" type="line" smooth="yes"/>
			<point x="-607" y="641"/>
			<point x="-602" y="637"/>
		</contour>
		<contour>
			<point x="-543" y="676" type="line"/>
			<point x="-526" y="726"/>
			<point x="-475" y="759"/>
			<point x="-405" y="759" type="curve" smooth="yes"/>
			<point x="-334" y="759"/>
			<point x="-284" y="726"/>
			<point x="-267" y="676" type="curve"/>
		</contour>
	</outline>
</glyph>
<glyph name="saraU-thai.small" format="2">
	<advance width="0"/>
	<anchor x="-82" y="-180" name="_bottom"/>
	<anchor x="-82" y="-440" name="bottom"/>
	<note>
		saraU-thai.small
	</note>
	<outline>
		<contour>
			<point x="-107" y="-463" type="curve" smooth="yes"/>
			<point x="-92" y="-463"/>
			<point x="-84" y="-456"/>
			<point x="-84" y="-444" type="curve" smooth="yes"/>
			<point x="-84" y="-330" type="line" smooth="yes"/>
			<point x="-84" y="-290"/>
			<point x="-114" y="-260"/>
			<point x="-159" y="-260" type="curve" smooth="yes"/>
			<point x="-203" y="-260"/>
			<point x="-233" y="-288"/>
			<point x="-233" y="-328" type="curve" smooth="yes"/>
			<point x="-233" y="-369"/>
			<point x="-202" y="-395"/>
			<point x="-164" y="-395" type="curve" smooth="yes"/>
			<point x="-152" y="-395"/>
			<point x="-143" y="-392"/>
			<point x="-134" y="-386" type="curve"/>
			<point x="-133" y="-388" type="line"/>
			<point x="-136" y="-395"/>
			<point x="-138" y="-402"/>
			<point x="-138" y="-410" type="curve" smooth="yes"/>
			<point x="-138" y="-438" type="line" smooth="yes"/>
			<point x="-138" y="-456"/>
			<point x="-126" y="-463"/>
		</contour>
		<contour>
			<point x="-160" y="-365" type="curve" smooth="yes"/>
			<point x="-180" y="-365"/>
			<point x="-197" y="-352"/>
			<point x="-197" y="-328" type="curve" smooth="yes"/>
			<point x="-197" y="-304"/>
			<point x="-180" y="-291"/>
			<point x="-160" y="-291" type="curve" smooth="yes"/>
			<point x="-139" y="-291"/>
			<point x="-123" y="-304"/>
			<point x="-123" y="-328" type="curve" smooth="yes"/>
			<point x="-123" y="-352"/>
			<point x="-139" y="-365"/>
		</contour>
	</outline>
</glyph>
<glyph name="thanthakhat-thai.small" format="2">
	<advance width="0"/>
	<anchor x="-83" y="713" name="top"/>
	<anchor x="-83" y="512" name="_top"/>
	<note>
		thanthakhat-thai.small
	</note>
	<outline>
		<contour>
			<point x="-156" y="871" type="curve" smooth="yes"/>
			<point x="-119" y="871"/>
			<point x="-89" y="896"/>
			<point x="-89" y="934" type="curve" smooth="yes"/>
			<point x="-89" y="942"/>
			<point x="-92" y="953"/>
			<point x="-96" y="959" type="curve"/>
			<point x="-94" y="962" type="line"/>
			<point x="-88" y="958"/>
			<point x="-81" y="956"/>
			<point x="-74" y="956" type="curve" smooth="yes"/>
			<point x="16" y="956" type="line" smooth="yes"/>
			<point x="35" y="956"/>
			<point x="42" y="968"/>
			<point x="42" y="986" type="curve" smooth="yes"/>
			<point x="42" y="1002"/>
			<point x="34" y="1010"/>
			<point x="23" y="1010" type="curve" smooth="yes"/>
			<point x="-150" y="1010" type="line" smooth="yes"/>
			<point x="-193" y="1010"/>
			<point x="-227" y="983"/>
			<point x="-227" y="941" type="curve" smooth="yes"/>
			<point x="-227" y="898"/>
			<point x="-195" y="871"/>
		</contour>
		<contour>
			<point x="-155" y="902" type="curve" smooth="yes"/>
			<point x="-175" y="902"/>
			<point x="-189" y="916"/>
			<point x="-189" y="938" type="curve" smooth="yes"/>
			<point x="-189" y="961"/>
			<point x="-174" y="974"/>
			<point x="-155" y="974" type="curve" smooth="yes"/>
			<point x="-134" y="974"/>
			<point x="-120" y="961"/>
			<point x="-120" y="938" type="curve" smooth="yes"/>
			<point x="-120" y="916"/>
			<point x="-135" y="902"/>
		</contour>
	</outline>
</glyph>
